<?xml version="1.0" standalone="no"?>
<!DOCTYPE svg PUBLIC "-//W3C//DTD SVG 20010904//EN"
 "http://www.w3.org/TR/2001/REC-SVG-20010904/DTD/svg10.dtd">
<svg version="1.0" xmlns="http://www.w3.org/2000/svg"
 width="100.000000pt" height="100.000000pt" viewBox="0 0 100.000000 100.000000"
 preserveAspectRatio="xMidYMid meet">
<metadata>
Created by potrace 1.13, written by Peter Selinger 2001-2015
</metadata>
<g transform="translate(0.000000,100.000000) scale(0.100000,-0.100000)"
fill="#000000" stroke="none">
<path d="M0 500 l0 -500 500 0 500 0 0 500 0 500 -500 0 -500 0 0 -500z m689
278 c-12 -23 -12 -23 9 -4 21 18 21 18 28 -8 4 -16 1 -32 -6 -41 -9 -11 -9
-15 -1 -15 27 0 -2 -19 -38 -25 -22 -3 -47 -13 -58 -20 -21 -17 -73 -20 -73
-5 0 18 -89 11 -130 -10 -22 -11 -52 -38 -66 -60 -26 -39 -28 -71 -12 -177 5
-33 -15 -32 -31 1 -23 49 -19 126 10 182 37 72 101 109 189 110 58 1 72 5 104
30 20 16 36 35 36 43 0 8 6 11 15 7 8 -3 15 -1 15 4 0 6 5 10 10 10 7 0 7 -8
-1 -22z m31 -281 c0 -107 -67 -188 -178 -212 -36 -7 -132 11 -132 26 0 11 11
12 72 9 64 -3 108 14 147 54 32 33 32 34 12 41 -16 5 -21 15 -21 41 0 31 3 34
30 34 24 0 29 -4 27 -21 -1 -12 3 -24 9 -26 17 -6 24 35 8 48 -8 6 -14 20 -14
31 0 11 -5 28 -10 39 -8 13 -7 26 1 42 12 21 13 21 30 -18 10 -22 19 -62 19
-88z"/>
</g>
</svg>
