<?xml version="1.0" standalone="no"?>
<!DOCTYPE svg PUBLIC "-//W3C//DTD SVG 20010904//EN"
 "http://www.w3.org/TR/2001/REC-SVG-20010904/DTD/svg10.dtd">
<svg version="1.0" xmlns="http://www.w3.org/2000/svg"
 width="512.000000pt" height="512.000000pt" viewBox="0 0 512.000000 512.000000"
 preserveAspectRatio="xMidYMid meet">
<metadata>
Created by potrace 1.13, written by Peter Selinger 2001-2015
</metadata>
<g transform="translate(0.000000,512.000000) scale(0.100000,-0.100000)"
fill="#000000" stroke="none">
<path d="M3707 4042 c-19 -21 -64 -119 -83 -182 -7 -25 -27 -61 -44 -80 -31
-35 -30 -34 10 46 22 44 40 85 40 91 0 25 -41 104 -52 101 -6 -2 -19 -26 -28
-54 -38 -110 -129 -264 -156 -264 -13 0 -13 4 2 29 9 16 14 36 11 45 -5 13
-10 12 -33 -7 -82 -68 -123 -111 -185 -190 -66 -86 -87 -122 -146 -257 -33
-76 -114 -189 -206 -286 -35 -38 -84 -101 -109 -139 -46 -71 -139 -165 -164
-165 -8 0 -60 7 -116 15 -118 18 -174 13 -225 -22 -20 -14 -75 -36 -122 -49
-106 -31 -174 -61 -167 -73 3 -5 21 -12 40 -15 19 -4 36 -11 38 -17 2 -6 40
-15 85 -19 88 -9 124 -24 193 -79 25 -19 47 -36 48 -37 9 -6 -13 -49 -60 -121
-30 -46 -110 -139 -198 -228 -81 -83 -156 -168 -168 -190 -28 -55 -91 -113
-197 -180 -49 -32 -106 -72 -125 -89 -19 -17 -77 -60 -128 -95 -50 -35 -92
-65 -92 -68 0 -15 62 14 124 58 38 27 72 46 75 43 18 -19 -205 -177 -354 -250
-52 -26 -92 -51 -88 -57 3 -5 25 -7 49 -4 53 6 149 61 257 147 43 34 81 60 84
57 17 -17 -110 -137 -145 -137 -22 0 -152 -71 -147 -80 3 -5 -15 -21 -39 -37
-25 -15 -47 -34 -50 -40 -7 -16 41 -17 80 -2 28 10 28 10 9 -10 -28 -32 0 -26
83 18 39 21 72 38 72 37 0 -1 -32 -28 -71 -60 -121 -100 -37 -94 94 6 48 37
47 36 -13 -21 -36 -33 -60 -60 -55 -61 12 0 78 42 115 74 17 14 14 9 -8 -17
-48 -56 -21 -79 41 -35 29 20 31 20 15 2 -10 -11 -18 -26 -18 -33 0 -18 32 2
89 58 36 35 51 45 55 34 4 -9 13 -12 25 -8 11 3 22 1 26 -5 13 -21 33 -8 59
40 15 27 37 56 48 65 22 15 61 11 85 -7 16 -13 49 -2 98 33 22 15 54 30 71 34
18 3 49 25 74 50 25 26 53 45 66 45 46 0 84 23 119 71 26 37 41 49 61 49 25 0
84 50 84 71 0 5 24 20 54 34 57 27 202 168 270 262 40 56 51 63 102 63 35 0
74 28 74 54 0 8 12 24 27 35 19 15 28 35 34 69 4 27 14 65 23 86 l16 38 47 -7
c33 -5 60 -18 93 -46 25 -21 55 -39 65 -39 10 0 53 -22 94 -50 96 -62 177 -80
227 -49 17 10 49 19 70 19 49 0 79 20 102 68 9 19 31 43 47 52 26 14 30 23 33
66 2 27 10 56 18 65 15 17 18 115 3 124 -4 3 -5 14 -2 24 10 38 -29 45 -222
43 -212 -3 -255 2 -255 28 0 11 -8 23 -17 29 -17 9 -16 12 6 35 13 14 45 32
70 39 42 12 46 16 52 50 4 26 19 52 47 80 34 35 40 48 39 79 -1 33 7 45 61
102 39 41 62 73 62 88 0 28 49 101 96 145 24 21 35 40 33 55 -4 41 13 82 48
115 34 32 35 36 17 104 -3 9 5 20 19 26 18 8 24 20 25 43 1 27 -4 34 -35 46
l-35 15 23 26 c13 14 37 31 52 39 25 14 27 18 21 52 -8 44 -22 64 -38 55 -6
-4 4 11 23 32 41 47 24 61 -21 19 -21 -19 -15 -9 16 29 25 32 46 60 46 62 0 3
-10 5 -23 5 -13 0 -42 -16 -65 -36 l-42 -36 31 51 c32 52 34 76 3 50 -16 -13
-16 -12 -1 18 19 35 22 79 7 88 -5 3 -17 -9 -26 -27 -14 -28 -141 -188 -148
-188 -2 0 13 31 33 69 31 60 34 72 24 93 -7 12 -13 34 -15 47 -4 31 -20 36
-41 13z"/>
</g>
</svg>
